<svg id="Layer_1" data-name="Layer 1" xmlns="http://www.w3.org/2000/svg" viewBox="0 0 1000 1000"><defs><style>.cls-1,.cls-4{fill:#606060;}.cls-2{fill:#f84d10;}.cls-3{fill:#444;}.cls-4{font-size:15.01px;font-family:ProductSans-Regular, Product Sans;}.cls-5{letter-spacing:-0.02em;}.cls-6{letter-spacing:-0.01em;}.cls-7{letter-spacing:-0.01em;}.cls-8{letter-spacing:0em;}.cls-10,.cls-11,.cls-12,.cls-13,.cls-9{font-family:ProductSans-Bold, Product Sans;}.cls-10,.cls-11,.cls-12,.cls-13,.cls-22,.cls-9{font-weight:700;}.cls-10{letter-spacing:-0.01em;}.cls-11{letter-spacing:0em;}.cls-12,.cls-14{letter-spacing:-0.03em;}.cls-13{letter-spacing:-0.01em;}.cls-15{letter-spacing:0em;}.cls-16{letter-spacing:0.01em;}.cls-17{fill:#00c853;}.cls-18{fill:#00e676;}.cls-19{fill:#c2eafd;}.cls-20{fill:#9addfb;}.cls-21{fill:#37474f;}.cls-22{font-size:66.43px;font-family:MyriadPro-Bold, Myriad Pro;}.cls-23{letter-spacing:-0.01em;}.cls-24{letter-spacing:0em;}.cls-25{letter-spacing:-0.01em;}.cls-26{font-family:MyriadPro-Regular, Myriad Pro;font-weight:400;}.cls-27{letter-spacing:0em;}</style></defs><title>Android Studio Logo Vector</title><polygon class="cls-1" points="436.59 945.44 426.86 967.92 421.72 967.92 412.02 945.44 417.64 945.44 424.48 961.5 431.42 945.44 436.59 945.44"/><path class="cls-1" d="M453.64,960.44H440.57c.48,2.15,2.31,3.46,4.94,3.46a5.85,5.85,0,0,0,4.34-1.67l2.66,2.89c-1.6,1.83-4,2.8-7.13,2.8-6,0-9.85-3.76-9.85-8.9s4-8.89,9.21-8.89c5.08,0,9,3.4,9,9,0,.38-.06.93-.09,1.35m-13.14-2.93H449a4.32,4.32,0,0,0-8.51,0"/><path class="cls-1" d="M455.79,959c0-5.2,4-8.89,9.63-8.89,3.63,0,6.49,1.57,7.74,4.4l-3.89,2.08a4.31,4.31,0,0,0-3.88-2.37,4.79,4.79,0,0,0,0,9.57,4.25,4.25,0,0,0,3.88-2.38l3.89,2.12c-1.25,2.76-4.11,4.37-7.74,4.37-5.62,0-9.63-3.7-9.63-8.9"/><path class="cls-1" d="M487.45,966.83a7.24,7.24,0,0,1-4.08,1.09c-4.08,0-6.45-2.09-6.45-6.2v-7.1h-2.67v-3.85h2.67v-4.21h5v4.21h4.3v3.85h-4.3v7a2,2,0,0,0,2.15,2.28,3.38,3.38,0,0,0,2-.65Z"/><path class="cls-1" d="M521.83,950.38V955c-.42,0-.74-.07-1.12-.07-2.77,0-4.6,1.51-4.6,4.82v8.16h-5V950.64h4.79v2.28c1.22-1.67,3.27-2.54,5.94-2.54"/><path class="cls-1" d="M523.27,965.32,525,961.4a13.21,13.21,0,0,0,7.42,2.34c3.08,0,4.33-1,4.33-2.41,0-4.2-13.07-1.31-13.07-9.66,0-3.82,3.09-7,9.48-7a15.06,15.06,0,0,1,7.8,2l-1.61,4a12.64,12.64,0,0,0-6.23-1.77c-3.08,0-4.27,1.16-4.27,2.57,0,4.14,13.07,1.29,13.07,9.54,0,3.76-3.11,7-9.53,7-3.57,0-7.17-1.06-9.16-2.6"/><path class="cls-1" d="M562,960.44H548.93c.48,2.15,2.31,3.46,5,3.46a5.82,5.82,0,0,0,4.33-1.67l2.67,2.89a9.07,9.07,0,0,1-7.13,2.8c-6,0-9.86-3.76-9.86-8.9s4-8.89,9.21-8.89c5.08,0,9,3.4,9,9,0,.38-.07.93-.1,1.35m-13.13-2.93h8.51a4.32,4.32,0,0,0-8.51,0"/><path class="cls-1" d="M582.26,960.44H569.19c.48,2.15,2.31,3.46,4.95,3.46a5.82,5.82,0,0,0,4.33-1.67l2.67,2.89a9.07,9.07,0,0,1-7.13,2.8c-6,0-9.86-3.76-9.86-8.9s4-8.89,9.22-8.89c5.07,0,9,3.4,9,9,0,.38-.07.93-.1,1.35m-13.13-2.93h8.51a4.32,4.32,0,0,0-8.51,0"/><polygon class="cls-1" points="593.11 961.14 590.71 963.52 590.71 967.92 585.7 967.92 585.7 944.09 590.71 944.09 590.71 957.58 598.03 950.64 604 950.64 596.81 957.96 604.64 967.92 598.57 967.92 593.11 961.14"/><path class="cls-1" d="M511.55,970.27h0l-5-5a10.6,10.6,0,0,1-2.69,2.25c-.16.12-.32.24-.49.35l5.29,5.29a2,2,0,1,0,2.89-2.88"/><path class="cls-2" d="M500,949.06a2.29,2.29,0,0,1,1.4-.49h.21a2.26,2.26,0,0,0-3.05.37h-.26a.93.93,0,0,0,.11-.44,1,1,0,0,0-.61-.91,1.29,1.29,0,0,1,.1,1.37,9.48,9.48,0,1,0,2.1.08m-3.5,2.48a4.26,4.26,0,0,1,2.1.54,4.1,4.1,0,0,1,2.27-.68,4.15,4.15,0,0,1,3.12,1.41,4.32,4.32,0,0,0-2.84-1.07,4.25,4.25,0,0,0-2.16.58c-.14.08-.27.17-.4.26l-.36-.23a4.25,4.25,0,0,0-2.2-.61,4.38,4.38,0,0,0-1.5.27,4.34,4.34,0,0,1,2-.47m6.63,7.77a4.86,4.86,0,1,1-9.09,0,3.79,3.79,0,1,1,4.55-6,3.79,3.79,0,1,1,4.54,6"/><path class="cls-3" d="M502.92,955.75a1.58,1.58,0,1,1-1.58-1.58,1.64,1.64,0,0,1,.5.08.86.86,0,0,0,.79,1.22,1,1,0,0,0,.25,0,1.46,1.46,0,0,1,0,.31"/><path class="cls-3" d="M497,955.75a1.2,1.2,0,1,1-1.2-1.2,1.12,1.12,0,0,1,.38.07.76.76,0,0,0-.06.27.66.66,0,0,0,.66.65.58.58,0,0,0,.19,0,.93.93,0,0,1,0,.24"/><rect class="cls-1" x="487.59" y="957.09" width="1.08" height="1.08"/><rect class="cls-1" x="508.45" y="957.09" width="1.08" height="1.08"/><path class="cls-1" d="M509.11,957.53h-.25a10.31,10.31,0,1,0-20.61,0H488a10.56,10.56,0,0,1,21.11,0"/><rect class="cls-1" x="498.02" y="946.56" width="1.08" height="1.08"/><rect class="cls-1" x="491.16" y="946.98" width="14.79" height="0.24"/><path class="cls-1" d="M491.55,947.15a.34.34,0,1,1-.34-.34.34.34,0,0,1,.34.34"/><path class="cls-1" d="M506.29,947.15a.34.34,0,1,1-.34-.34.34.34,0,0,1,.34.34"/><path class="cls-1" d="M612.62,966.85a2.07,2.07,0,0,1-4.13,0A2.07,2.07,0,0,1,612.62,966.85Z"/><path class="cls-1" d="M345.54,954.85l3.11,10.65,3.24-10.65h3.88l-4.94,14.24h-4.08l-1.46-4.19L344,960.16l-1.26,4.74-1.47,4.19h-4.07l-5-14.24h3.9l3.25,10.65,3.07-10.65Z"/><path class="cls-1" d="M371.75,954.85l3.1,10.65,3.25-10.65H382L377,969.09H373l-1.46-4.19-1.26-4.74L369,964.9l-1.46,4.19h-4.08l-5-14.24h3.91l3.24,10.65,3.08-10.65Z"/><path class="cls-1" d="M398,954.85l3.1,10.65,3.25-10.65h3.88l-4.94,14.24h-4.08l-1.47-4.19-1.26-4.74-1.26,4.74-1.47,4.19h-4.08l-5-14.24h3.9l3.25,10.65,3.07-10.65Z"/><path class="cls-1" d="M414.09,967.05a2.07,2.07,0,0,1-4.14,0A2.07,2.07,0,0,1,414.09,967.05Z"/><path class="cls-1" d="M627.24,966.85a7.26,7.26,0,0,1-5.45,2.24c-4.11,0-7.53-2.46-7.53-7.49s3.42-7.5,7.53-7.5a6.73,6.73,0,0,1,5.11,2.1l-2.21,2.33a4.3,4.3,0,0,0-2.84-1.12,4,4,0,0,0-4.08,4.19,3.85,3.85,0,0,0,4,4.13,4.25,4.25,0,0,0,3.1-1.17Z"/><path class="cls-1" d="M643.16,961.71a7.37,7.37,0,1,1-7.41-7.37A7.15,7.15,0,0,1,643.16,961.71Zm-11.23,0c0,2.16,1.29,4.17,3.85,4.17s3.85-2,3.85-4.17a4,4,0,0,0-3.85-4.19A3.89,3.89,0,0,0,631.93,961.71Z"/><path class="cls-1" d="M655,969.09v-7.58c0-1.86-1-3.56-2.9-3.56s-3,1.7-3,3.56v7.58h-3.5V954.91h3.25l.25,1.72a4.13,4.13,0,0,1,3.74-2,4.24,4.24,0,0,1,4.19,2.64,5.12,5.12,0,0,1,4.74-2.58c4,0,6,2.47,6,6.72v7.63h-3.5v-7.63c0-1.87-.78-3.45-2.67-3.45a3.23,3.23,0,0,0-3.08,3.5v7.58Z"/><text class="cls-4" transform="translate(332 934.35)"><tspan class="cls-5">D</tspan><tspan class="cls-6" x="10.15" y="0">o</tspan><tspan x="18.41" y="0">wn</tspan><tspan class="cls-7" x="37.87" y="0">l</tspan><tspan x="40.85" y="0">o</tspan><tspan class="cls-7" x="49.26" y="0">a</tspan><tspan class="cls-8" x="56.84" y="0">d </tspan><tspan class="cls-9" x="68.79" y="0">P</tspan><tspan class="cls-10" x="77.68" y="0">N</tspan><tspan class="cls-11" x="88.39" y="0">G PSD</tspan><tspan class="cls-12" x="132.17" y="0"> </tspan><tspan class="cls-13" x="135.02" y="0">S</tspan><tspan class="cls-12" x="143.51" y="0">V</tspan><tspan class="cls-11" x="153.26" y="0">G EPS</tspan><tspan x="194.93" y="0" xml:space="preserve">  </tspan><tspan class="cls-14" x="201.53" y="0">F</tspan><tspan class="cls-6" x="208.92" y="0">o</tspan><tspan x="217.18" y="0">r</tspan><tspan class="cls-15" x="222.63" y="0">m</tspan><tspan class="cls-6" x="235.35" y="0">a</tspan><tspan class="cls-16" x="242.85" y="0">t</tspan><tspan x="248.32" y="0">s In</tspan><tspan class="cls-14" x="270.13" y="0"> </tspan><tspan x="272.99" y="0">Si</tspan><tspan class="cls-7" x="284.59" y="0">n</tspan><tspan x="292.65" y="0">g</tspan><tspan class="cls-7" x="301.3" y="0">l</tspan><tspan x="304.29" y="0">e Zip</tspan></text><path class="cls-17" d="M249.85,461.27a105.93,105.93,0,0,1,211.86,0L355.78,471.86Z"/><path class="cls-18" d="M461.71,461.27a105.93,105.93,0,0,1-211.86,0Z"/><path class="cls-19" d="M436.76,563.7v16.74a2.54,2.54,0,0,1-1.32,2.28,2.5,2.5,0,0,1-2.65,0l-14.41-8.42L393.6,531.13,383,512.75l-19.86-34.53,15.52-15.52,21.13,36.76,11,19.07Z"/><path class="cls-20" d="M394.08,489.53a47.86,47.86,0,0,1-16.38,14l21.14,36.77a90.54,90.54,0,0,0,17.29-12.43Z"/><path class="cls-19" d="M435.23,461.27A79.43,79.43,0,0,1,318,531.13L293.18,574.3l-14.41,8.42a2.5,2.5,0,0,1-2.65,0,2.54,2.54,0,0,1-1.32-2.28V563.7l58.1-101,15.52,15.52-19.86,34.59a58.06,58.06,0,0,0,27.22,6.72,58.6,58.6,0,0,0,44-20.07A58,58,0,0,0,414,461.27Z"/><path class="cls-21" d="M379.61,408.31H366.37V392.42H345.19v15.89H332a8,8,0,0,0-7.95,7.94v45l26.12,26.12a8,8,0,0,0,11.31,0l26.13-26.12v-45A8,8,0,0,0,379.61,408.31ZM355.78,456A13.25,13.25,0,1,1,369,442.73,13.24,13.24,0,0,1,355.78,456Z"/><text class="cls-22" transform="translate(507.47 448.74)"><tspan class="cls-23">A</tspan><tspan class="cls-24" x="43.18" y="0">nd</tspan><tspan class="cls-25" x="121.7" y="0">r</tspan><tspan x="146.41" y="0">oid</tspan><tspan class="cls-26"><tspan class="cls-27" x="0" y="79.71">S</tspan><tspan x="32.55" y="79.71">tudio</tspan></tspan></text></svg>